<svg width="32" height="32" viewBox="0 0 32 32" fill="none" xmlns="http://www.w3.org/2000/svg">
<rect width="32" height="32" fill="#1A80FF"/>
<path d="M6.41369 13.1405L11.0814 14.3916C11.688 12.531 13.3203 11.134 15.3104 10.8687V6.01758C11.0846 6.3055 7.57972 9.21934 6.41369 13.1405Z" fill="white"/>
<path d="M6.17076 14.1467C6.05863 14.7464 6 15.3649 6 15.9971C6 19.5063 7.80657 22.5935 10.5402 24.3789L12.9612 20.1844C11.6682 19.2438 10.8276 17.7186 10.8276 15.9971C10.8276 15.7965 10.839 15.5985 10.8612 15.4039L6.17076 14.1467Z" fill="white"/>
<path d="M16 26C14.3552 26 12.8031 25.6028 11.4345 24.899L13.8544 20.7063C14.508 21.0047 15.2346 21.171 16 21.171C18.8566 21.171 21.1724 18.8546 21.1724 15.9971C21.1724 13.2555 19.0407 11.012 16.3448 10.8345V6C21.708 6.18179 26 10.5881 26 15.9971C26 21.5215 21.5228 26 16 26Z" fill="white"/>
</svg>
